<svg width="191" height="44" viewBox="0 0 191 44" fill="none" xmlns="http://www.w3.org/2000/svg">
<path d="M64.304 29H60.848V12.2H68.624C70.416 12.2 71.824 12.664 72.848 13.592C73.888 14.504 74.408 15.696 74.408 17.168C74.408 18.288 74.096 19.264 73.472 20.096C72.864 20.912 72.016 21.488 70.928 21.824L76.112 29H72.104L67.208 22.208H64.304V29ZM64.304 15.224V19.304H68.432C69.216 19.304 69.824 19.128 70.256 18.776C70.704 18.424 70.928 17.92 70.928 17.264C70.928 16.624 70.704 16.128 70.256 15.776C69.824 15.408 69.216 15.224 68.432 15.224H64.304ZM83.5042 29.312C81.6322 29.312 80.0562 28.736 78.7762 27.584C77.4962 26.432 76.8562 24.904 76.8562 23C76.8562 21.224 77.4322 19.736 78.5842 18.536C79.7362 17.32 81.2402 16.712 83.0962 16.712C84.8242 16.712 86.2082 17.328 87.2482 18.56C88.2882 19.792 88.8082 21.288 88.8082 23.048V23.936H80.2162C80.3922 24.736 80.8322 25.352 81.5362 25.784C82.2562 26.216 83.1522 26.432 84.2242 26.432C85.5522 26.432 86.8322 26.08 88.0642 25.376V28.088C86.9922 28.904 85.4722 29.312 83.5042 29.312ZM80.2162 21.776H85.4722C85.4402 21.088 85.1922 20.52 84.7282 20.072C84.2802 19.608 83.6882 19.376 82.9522 19.376C82.2002 19.376 81.5762 19.6 81.0802 20.048C80.5842 20.48 80.2962 21.056 80.2162 21.776ZM98.726 16.712C100.358 16.712 101.702 17.32 102.758 18.536C103.83 19.72 104.366 21.216 104.366 23.024C104.366 24.8 103.83 26.296 102.758 27.512C101.702 28.712 100.358 29.312 98.726 29.312C97.046 29.312 95.734 28.72 94.79 27.536V33.8H91.406V17.024H94.79V18.488C95.686 17.304 96.998 16.712 98.726 16.712ZM97.766 19.664C97.126 19.664 96.542 19.832 96.014 20.168C95.486 20.504 95.078 20.936 94.79 21.464V24.584C95.078 25.112 95.486 25.544 96.014 25.88C96.542 26.2 97.126 26.36 97.766 26.36C98.726 26.36 99.502 26.04 100.094 25.4C100.702 24.744 101.006 23.952 101.006 23.024C101.006 22.08 100.702 21.28 100.094 20.624C99.502 19.984 98.726 19.664 97.766 19.664ZM131.704 29H128.32V17.024H131.704V19.04C132.072 18.4 132.632 17.856 133.384 17.408C134.168 16.944 135 16.712 135.88 16.712C136.072 16.712 136.2 16.72 136.264 16.736V20.048C135.944 19.968 135.592 19.928 135.208 19.928C134.424 19.928 133.704 20.136 133.048 20.552C132.408 20.952 131.96 21.44 131.704 22.016V29ZM141.013 23C141.013 23.96 141.325 24.76 141.949 25.4C142.573 26.04 143.365 26.36 144.325 26.36C145.285 26.36 146.077 26.04 146.701 25.4C147.325 24.744 147.637 23.944 147.637 23C147.637 22.04 147.325 21.248 146.701 20.624C146.077 19.984 145.285 19.664 144.325 19.664C143.365 19.664 142.573 19.984 141.949 20.624C141.325 21.248 141.013 22.04 141.013 23ZM137.677 23C137.677 21.224 138.301 19.736 139.549 18.536C140.781 17.32 142.373 16.712 144.325 16.712C146.277 16.712 147.869 17.32 149.101 18.536C150.349 19.752 150.973 21.24 150.973 23C150.973 24.792 150.349 26.296 149.101 27.512C147.853 28.712 146.261 29.312 144.325 29.312C142.389 29.312 140.797 28.712 139.549 27.512C138.301 26.296 137.677 24.792 137.677 23ZM154.315 25.28V19.856H151.963V17.024H154.315V13.736H157.699V17.024H161.107V19.856H157.699V24.608C157.699 25.2 157.827 25.632 158.083 25.904C158.339 26.16 158.755 26.288 159.331 26.288C159.923 26.288 160.507 26.144 161.083 25.856V28.664C160.379 29.096 159.427 29.312 158.227 29.312C155.619 29.312 154.315 27.968 154.315 25.28ZM169.637 29.312C167.765 29.312 166.189 28.736 164.909 27.584C163.629 26.432 162.989 24.904 162.989 23C162.989 21.224 163.565 19.736 164.717 18.536C165.869 17.32 167.373 16.712 169.229 16.712C170.957 16.712 172.341 17.328 173.381 18.56C174.421 19.792 174.941 21.288 174.941 23.048V23.936H166.349C166.525 24.736 166.965 25.352 167.669 25.784C168.389 26.216 169.285 26.432 170.357 26.432C171.685 26.432 172.965 26.08 174.197 25.376V28.088C173.125 28.904 171.605 29.312 169.637 29.312ZM166.349 21.776H171.605C171.573 21.088 171.325 20.52 170.861 20.072C170.413 19.608 169.821 19.376 169.085 19.376C168.333 19.376 167.709 19.6 167.213 20.048C166.717 20.48 166.429 21.056 166.349 21.776ZM180.923 29H177.539V12.2H180.923V21.392L185.051 17.024H189.203L183.995 22.424L190.019 29H185.651L180.923 23.84V29Z" fill="currentColor"/>
<path d="M118.251 26.384C118.539 26.384 118.771 26.336 118.947 26.24V28.712C118.515 29.048 117.907 29.216 117.123 29.216C115.763 29.216 114.859 28.704 114.411 27.68C113.355 28.768 111.979 29.312 110.283 29.312C108.971 29.312 107.907 28.944 107.091 28.208C106.275 27.472 105.867 26.504 105.867 25.304C105.867 24.024 106.331 23.048 107.259 22.376C108.187 21.704 109.299 21.368 110.595 21.368C111.955 21.368 113.107 21.616 114.051 22.112V21.752C114.051 20.248 112.995 19.496 110.883 19.496C109.587 19.496 108.379 19.832 107.259 20.504V17.672C108.475 17.032 109.955 16.712 111.699 16.712C113.427 16.712 114.803 17.128 115.827 17.96C116.883 18.792 117.411 19.944 117.411 21.416V25.472C117.411 26.08 117.691 26.384 118.251 26.384ZM114.051 25.472V24.272C113.347 23.808 112.515 23.576 111.555 23.576C110.835 23.576 110.259 23.712 109.827 23.984C109.411 24.256 109.203 24.64 109.203 25.136C109.203 25.648 109.395 26.04 109.779 26.312C110.163 26.568 110.683 26.696 111.339 26.696C112.523 26.696 113.427 26.288 114.051 25.472ZM124.841 29H121.457V17.024H124.841V29ZM121.121 13.856C121.121 13.28 121.313 12.8 121.697 12.416C122.097 12.016 122.577 11.816 123.137 11.816C123.697 11.816 124.169 12.016 124.553 12.416C124.953 12.8 125.153 13.28 125.153 13.856C125.153 14.416 124.953 14.896 124.553 15.296C124.169 15.68 123.697 15.872 123.137 15.872C122.577 15.872 122.097 15.68 121.697 15.296C121.313 14.896 121.121 14.416 121.121 13.856Z" fill="#FE8F37"/>
<path d="M24.8703 6.146H14.7744V22.4963H24.8703V6.146Z" fill="#FE8F37" stroke="#1F1F1F" stroke-width="0.5" stroke-miterlimit="2.61"/>
<path d="M36.7961 33.4497V42.177H35.7393V33.4497H36.7961Z" fill="#1F1F1F"/>
<path d="M41.3889 31.6698H36.0838V33.1136H41.3889V31.6698Z" fill="#1F1F1F"/>
<path fill-rule="evenodd" clip-rule="evenodd" d="M38.306 37.0418L35.121 32.4404L26.4166 28.7983H13.0599L10.4123 37.0418H1.23972L14.9195 0H24.9494L38.306 37.0418ZM24.4746 22.3954L20.4422 9.94414C20.1488 9.01086 19.9311 7.89873 19.8092 6.611H19.6047C19.5157 7.69386 19.3014 8.77022 18.9519 9.83683L14.8668 22.3922H24.4779L24.4746 22.3954Z" fill="#1F1F1F"/>
<path fill-rule="evenodd" clip-rule="evenodd" d="M23.5283 28.6C24.745 29.1235 29.1136 30.2877 31.0359 31.351C35.3123 33.7151 12.2851 41.035 9.24515 43.269L46.9181 43.5617C48.3986 43.5715 58.8208 29.8357 39.1765 29.3284L32.4866 29.156C32.4866 29.156 30.3435 29.2438 23.5283 28.6Z" fill="#1F1F1F"/>
<path fill-rule="evenodd" clip-rule="evenodd" d="M35.7376 39.2498L28.4872 43.6528L31.4645 43.721L37.6005 39.4871L35.7376 39.2498Z" fill="white"/>
<path fill-rule="evenodd" clip-rule="evenodd" d="M37.2675 38.0108L39.8425 35.4777L41.2141 35.6955L38.8699 38.3458L37.2675 38.0108Z" fill="white"/>
<path fill-rule="evenodd" clip-rule="evenodd" d="M40.2876 34.4599L40.5679 32.525L41.8373 32.5055L41.8538 34.4599H40.2876Z" fill="white"/>
<path fill-rule="evenodd" clip-rule="evenodd" d="M40.5052 31.9396L39.2424 31.1851L39.8062 30.7949L41.5504 31.5884L40.5052 31.9396Z" fill="white"/>
<path fill-rule="evenodd" clip-rule="evenodd" d="M38.7248 30.795L37.0993 30.3885L37.307 29.9625L39.1567 30.4275L38.7248 30.795Z" fill="white"/>
<path fill-rule="evenodd" clip-rule="evenodd" d="M36.219 30.1967L33.7758 29.9854L33.9703 29.5724L36.4069 29.7708L36.219 30.1967Z" fill="white"/>
<path fill-rule="evenodd" clip-rule="evenodd" d="M33.8978 29.9951L23.6602 28.6228L34.0462 29.5788L33.8978 29.9951Z" fill="white"/>
<path fill-rule="evenodd" clip-rule="evenodd" d="M23.5283 28.6001C24.9659 29.2732 28.2366 31.2438 25.4967 33.0031C23.7228 34.1444 21.5665 34.9737 19.2091 35.6956C11.7279 38.4661 4.37859 39.7636 0 42.9504L6.7723 43.1358C9.42649 41.227 20.5378 37.0516 26.7002 34.6062C34.0791 31.6796 29.173 30.5512 23.5283 28.5968V28.6001Z" fill="#62B152"/>
</svg>
