<?xml version="1.0" encoding="utf-8"?>
<!-- Generator: Adobe Illustrator 27.9.0, SVG Export Plug-In . SVG Version: 6.00 Build 0)  -->
<svg version="1.1" id="Layer_1" xmlns="http://www.w3.org/2000/svg" xmlns:xlink="http://www.w3.org/1999/xlink" x="0px" y="0px"
	 viewBox="0 0 141.73 54.12" style="enable-background:new 0 0 141.73 54.12;" xml:space="preserve">
<style type="text/css">
	.st0{fill:#484848;}
</style>
<g>
	<path class="st0" d="M135.18,40.98l-94.26,0v13.1l94.26,0c3.61,0,6.55-2.94,6.55-6.55S138.8,40.98,135.18,40.98z"/>
	<path class="st0" d="M84.78,35.83v0.7h13.1v-0.7c0-3.61-2.94-6.55-6.55-6.55S84.78,32.22,84.78,35.83z"/>
	<path class="st0" d="M79.77,16.29l0.64-0.35c3.32-1.83,7.1-2.8,10.92-2.8c12.51,0,22.69,10.18,22.69,22.69v0.7h13.1v-0.7
		c0-19.73-16.05-35.79-35.78-35.79c-5.72,0-11.44,1.4-16.51,4.05L13.1,36.66V17.59l-13.1,0v29.94c0,2.28,1.21,4.43,3.17,5.61
		c1.02,0.61,2.19,0.94,3.38,0.94c1.06,0,2.12-0.26,3.06-0.76l70.16-37.04L79.77,16.29z"/>
</g>
</svg>
