<?xml version="1.0" encoding="utf-8"?>
<!-- Generator: Adobe Illustrator 27.9.0, SVG Export Plug-In . SVG Version: 6.00 Build 0)  -->
<svg version="1.1" id="Layer_1" xmlns="http://www.w3.org/2000/svg" 
xmlns:xlink="http://www.w3.org/1999/xlink" x="0px" y="0px"
	 viewBox="0 0 141.73 23.68" 
	 style="enable-background:new 0 0 141.73 23.68;" xml:space="preserve">
<style type="text/css">
	.st0{fill:#484848;}
</style>
<g>
	<path class="st0" d="M9.45,0.03H0v23.62h9.45c6.51,0,11.81-5.3,11.81-11.81C21.26,5.33,15.96,0.03,9.45,0.03z M9.45,18.92H4.72
		V4.75h4.72c3.91,0,7.09,3.18,7.09,7.09S13.36,18.92,9.45,18.92z"/>
	<path class="st0" d="M80.91,0.03H69.09v23.62h4.72V14.2h7.09c3.91,0,7.09-3.18,7.09-7.09S84.81,0.03,80.91,0.03z M80.91,9.48h-7.09
		V4.76h7.09c1.3,0,2.36,1.06,2.36,2.36C83.27,8.42,82.21,9.48,80.91,9.48z"/>
	<path class="st0" d="M36.61,0.03c-6.51,0-11.81,5.3-11.81,11.81c0,6.51,5.3,11.81,11.81,11.81c6.51,0,11.81-5.3,11.81-11.81
		C48.43,5.33,43.13,0.03,36.61,0.03z M36.61,18.92c-3.91,0-7.09-3.18-7.09-7.08s3.18-7.09,7.09-7.09c3.91,0,7.09,3.18,7.09,7.09
		S40.52,18.92,36.61,18.92z"/>
	<polygon class="st0" points="56.69,0.03 51.97,0.03 51.97,23.65 66.14,23.65 66.14,18.92 56.69,18.92 	"/>
	<polygon class="st0" points="104.53,9.48 95.08,9.48 95.08,0.03 90.35,0.03 90.35,9.48 90.35,14.2 90.35,23.65 95.08,23.65 
		95.08,14.2 104.53,14.2 104.53,23.65 109.25,23.65 109.25,14.2 109.25,9.48 109.25,0.03 104.53,0.03 	"/>
	<polygon class="st0" points="137.01,0.03 137.01,14.84 127.56,0.03 127.56,0.03 127.56,0.03 127.56,0.03 127.56,0.03 122.84,0.03 
		122.84,23.65 127.56,23.65 127.56,8.81 137.01,23.62 137.01,23.65 137.04,23.65 141.73,23.65 141.73,22.23 141.73,0.03 	"/>
	<rect x="113.68" y="0.03" class="st0" width="4.72" height="23.62"/>
</g>
</svg>
