<svg width="50" height="44" viewBox="0 0 50 44" fill="none" xmlns="http://www.w3.org/2000/svg">
<path d="M24.8703 6.146H14.7744V22.4963H24.8703V6.146Z" fill="#FE8F37" stroke="#1F1F1F" stroke-width="0.5" stroke-miterlimit="2.61"/>
<path d="M36.7961 33.4497V42.177H35.7393V33.4497H36.7961Z" fill="#1F1F1F"/>
<path d="M41.3889 31.6698H36.0838V33.1136H41.3889V31.6698Z" fill="#1F1F1F"/>
<path fill-rule="evenodd" clip-rule="evenodd" d="M38.306 37.0418L35.121 32.4404L26.4166 28.7983H13.0599L10.4123 37.0418H1.23972L14.9195 0H24.9494L38.306 37.0418ZM24.4746 22.3954L20.4422 9.94414C20.1488 9.01086 19.9311 7.89873 19.8092 6.611H19.6047C19.5157 7.69386 19.3014 8.77022 18.9519 9.83683L14.8668 22.3922H24.4779L24.4746 22.3954Z" fill="#1F1F1F"/>
<path fill-rule="evenodd" clip-rule="evenodd" d="M23.5283 28.6C24.745 29.1235 29.1136 30.2877 31.0359 31.351C35.3123 33.7151 12.2851 41.035 9.24515 43.269L46.9181 43.5617C48.3986 43.5715 58.8208 29.8357 39.1765 29.3284L32.4866 29.156C32.4866 29.156 30.3435 29.2438 23.5283 28.6Z" fill="#1F1F1F"/>
<path fill-rule="evenodd" clip-rule="evenodd" d="M35.7376 39.2498L28.4872 43.6528L31.4645 43.721L37.6005 39.4871L35.7376 39.2498Z" fill="white"/>
<path fill-rule="evenodd" clip-rule="evenodd" d="M37.2675 38.0108L39.8425 35.4777L41.2141 35.6955L38.8699 38.3458L37.2675 38.0108Z" fill="white"/>
<path fill-rule="evenodd" clip-rule="evenodd" d="M40.2876 34.4599L40.5679 32.525L41.8373 32.5055L41.8538 34.4599H40.2876Z" fill="white"/>
<path fill-rule="evenodd" clip-rule="evenodd" d="M40.5052 31.9396L39.2424 31.1851L39.8062 30.7949L41.5504 31.5884L40.5052 31.9396Z" fill="white"/>
<path fill-rule="evenodd" clip-rule="evenodd" d="M38.7248 30.795L37.0993 30.3885L37.307 29.9625L39.1567 30.4275L38.7248 30.795Z" fill="white"/>
<path fill-rule="evenodd" clip-rule="evenodd" d="M36.219 30.1967L33.7758 29.9854L33.9703 29.5724L36.4069 29.7708L36.219 30.1967Z" fill="white"/>
<path fill-rule="evenodd" clip-rule="evenodd" d="M33.8978 29.9951L23.6602 28.6228L34.0462 29.5788L33.8978 29.9951Z" fill="white"/>
<path fill-rule="evenodd" clip-rule="evenodd" d="M23.5283 28.6001C24.9659 29.2732 28.2366 31.2438 25.4967 33.0031C23.7228 34.1444 21.5665 34.9737 19.2091 35.6956C11.7279 38.4661 4.37859 39.7636 0 42.9504L6.7723 43.1358C9.42649 41.227 20.5378 37.0516 26.7002 34.6062C34.0791 31.6796 29.173 30.5512 23.5283 28.5968V28.6001Z" fill="#62B152"/>
</svg>
