
<svg width="64" height="64" viewBox="0 0 64 64" fill="none" xmlns="http://www.w3.org/2000/svg">
<path d="M44.2934 53.3333C47.8667 53.36 51.3067 52.0267 53.9467 49.6267C62.6667 42 58 26.6933 46.5067 25.2533C42.4 0.346651 6.48002 9.78665 14.9867 33.4933" stroke="currentColor" stroke-width="1.5" stroke-miterlimit="10" stroke-linecap="round" stroke-linejoin="round"/>
<path d="M19.4133 34.5867C18 33.8667 16.4267 33.4933 14.8533 33.52C2.42667 34.4 2.45334 52.48 14.8533 53.36" stroke="currentColor" stroke-width="1.5" stroke-miterlimit="10" stroke-linecap="round" stroke-linejoin="round"/>
<path d="M42.1866 26.3734C43.5733 25.68 45.0666 25.3067 46.6133 25.28" stroke="currentColor" stroke-width="1.5" stroke-miterlimit="10" stroke-linecap="round" stroke-linejoin="round"/>
<path d="M26.5866 53.3334L21.2533 58.6667" stroke="currentColor" stroke-width="1.5" stroke-miterlimit="10" stroke-linecap="round" stroke-linejoin="round"/>
<path d="M37.2534 53.3334L31.92 58.6667" stroke="currentColor" stroke-width="1.5" stroke-miterlimit="10" stroke-linecap="round" stroke-linejoin="round"/>
<path d="M37.2534 42.6666L31.92 48" stroke="currentColor" stroke-width="1.5" stroke-miterlimit="10" stroke-linecap="round" stroke-linejoin="round"/>
<path d="M26.5866 42.6666L21.2533 48" stroke="currentColor" stroke-width="1.5" stroke-miterlimit="10" stroke-linecap="round" stroke-linejoin="round"/>
</svg>
