
<svg width="64" height="64" viewBox="0 0 64 64" fill="none" xmlns="http://www.w3.org/2000/svg">
<path d="M54.0533 49.8134C51.4133 52.2401 47.9467 53.5734 44.3467 53.5467H14.7733C2.32001 52.6401 2.29334 34.5067 14.7733 33.6001H14.9067C7.70668 13.4934 32.32 3.57339 42.6667 16.0801V16.1067C44.5333 18.4001 45.9467 21.4401 46.5867 25.3067C50.1333 25.7601 53.0133 27.4934 55.0667 29.9467C59.7333 35.4667 60.1333 44.4801 54.0533 49.8134Z" stroke="currentColor" stroke-width="1.5" stroke-miterlimit="10" stroke-linecap="round" stroke-linejoin="round"/>
<path d="M19.36 34.6933C17.9733 34 16.4533 33.6266 14.9067 33.6" stroke="currentColor" stroke-width="1.5" stroke-miterlimit="10" stroke-linecap="round" stroke-linejoin="round"/>
<path d="M42.2667 26.4533C43.6533 25.76 45.1733 25.3867 46.72 25.36" stroke="currentColor" stroke-width="1.5" stroke-miterlimit="10" stroke-linecap="round" stroke-linejoin="round"/>
<path d="M58.5867 22.6667C58.5867 25.6 57.2267 28.24 55.0667 29.9467C53.0134 27.4934 50.1334 25.76 46.5867 25.3067C45.9467 21.44 44.5334 18.4 42.6667 16.1067V16.08C44.3467 14.3734 46.6934 13.3334 49.2534 13.3334C54.4 13.3334 58.5867 17.52 58.5867 22.6667Z" stroke="currentColor" stroke-width="1.5" stroke-miterlimit="10" stroke-linecap="round" stroke-linejoin="round"/>
</svg>
