
<svg width="64" height="64" viewBox="0 0 64 64" fill="none" xmlns="http://www.w3.org/2000/svg">
<path d="M32 49.3333C41.573 49.3333 49.3334 41.5729 49.3334 32C49.3334 22.427 41.573 14.6666 32 14.6666C22.4271 14.6666 14.6667 22.427 14.6667 32C14.6667 41.5729 22.4271 49.3333 32 49.3333Z" stroke="currentColor" stroke-width="1.5" stroke-linecap="round" stroke-linejoin="round"/>
<path d="M51.04 51.04L50.6933 50.6934M50.6933 13.3067L51.04 12.96L50.6933 13.3067ZM12.96 51.04L13.3066 50.6934L12.96 51.04ZM32 5.54671V5.33337V5.54671ZM32 58.6667V58.4534V58.6667ZM5.54665 32H5.33331H5.54665ZM58.6666 32H58.4533H58.6666ZM13.3066 13.3067L12.96 12.96L13.3066 13.3067Z" stroke="currentColor" stroke-width="2" stroke-linecap="round" stroke-linejoin="round"/>
</svg>
