
<?xml version="1.0" encoding="UTF-8" standalone="no"?> <svg xmlns="http://www.w3.org/2000/svg" viewBox="0 0 512 512"><g id="Storm"><path d="M112.3145,220.4a6.0035,6.0035,0,0,1-5.6963-4.1187,72.2535,72.2535,0,0,1,96.2763-89.3842,6,6,0,1,1-4.6054,11.081,60.2572,60.2572,0,0,0-80.2764,74.5376,6.0048,6.0048,0,0,1-5.6982,7.8843Z"/><path d="M175.1973,115.0376a6,6,0,0,1-6-6v-18.14a6,6,0,0,1,12,0v18.14A6,6,0,0,1,175.1973,115.0376Z"/><path d="M90.6289,199.606H72.4883a6,6,0,1,1,0-12H90.6289a6,6,0,0,1,0,12Z"/><path d="M115.3984,139.8071a5.98,5.98,0,0,1-4.2422-1.7573L98.3291,125.2227a6,6,0,0,1,8.4844-8.4854l12.8271,12.8272a6,6,0,0,1-4.2422,10.2426Z"/><path d="M390.2852,342.5322H338.68a6,6,0,0,1,0-12h51.6055a43.2266,43.2266,0,0,0,0-86.4531H380.33a6,6,0,0,1-5.8291-7.42A93.4915,93.4915,0,1,0,190.33,209.3843a5.9993,5.9993,0,0,1-7.169,5.5635,58.7928,58.7928,0,0,0-11.5175-1.1421h-2.3584a58.3633,58.3633,0,1,0,0,116.7265H193.94a6,6,0,1,1,0,12H169.2852a70.3633,70.3633,0,1,1,0-140.7265h2.3584a70.7111,70.7111,0,0,1,7.2568.3745,105.4914,105.4914,0,1,1,208.7861,29.8989h2.5987a55.2266,55.2266,0,0,1,0,110.4531Z"/><path d="M237.2471,427.0918a10.02,10.02,0,0,1-9.6875-12.5391l18.8379-72.0864H216.2764a9.3432,9.3432,0,0,1-7.0293-15.499l90.4267-103.2588a10.0007,10.0007,0,0,1,17.1992,9.1177l-18.8378,72.0864h30.122a9.343,9.343,0,0,1,7.0293,15.498L244.76,423.67A9.969,9.969,0,0,1,237.2471,427.0918Zm-15.1133-96.6255h27.7041a9.3428,9.3428,0,0,1,9.0391,11.7056L241.31,409.395l80.9892-92.4824H294.5947a9.3426,9.3426,0,0,1-9.039-11.7056l17.5664-67.2221Zm106.0234-13.5537h0Z"/></g></svg>